<svg width="278" height="297" viewBox="0 0 278 297" fill="none" xmlns="http://www.w3.org/2000/svg">
<path d="M163.944 165.55C110.444 129.05 61.9444 220.05 34.9444 200.55C15.2489 186.326 38.4444 162.05 38.4444 162.05C38.4444 162.05 1.44444 151.05 38.4444 95.0503C72.8017 43.0502 128.944 41.5502 128.944 41.5502C128.944 41.5502 148.601 27.4508 161.944 24.0502C178.444 19.8452 194.444 21.0501 199.944 21.5501C206.944 22.55 208.444 28.5501 207.944 32.0501C207.444 35.5501 194.944 53.5501 193.944 56.0503C197.944 58.5501 249.795 87.55 253.944 150.55C258.226 215.55 214.944 269.998 144.944 276.443C132.728 277.568 119.444 276.443 104.944 272.55C93.1507 269.384 69.9444 257.55 82.9444 232.55C92.9444 216.05 114.444 223.05 114.444 223.05C114.444 223.05 121.444 204.55 141.944 206.05C158.026 207.227 161.644 223.04 161.944 230.55C162.444 243.05 158.444 253.05 155.944 256.05C171.444 250.05 192.444 233.55 186.944 200.05C184.892 187.55 176.912 174.757 163.944 165.55Z" fill="#3F248F"/>
</svg>
